<?xml version="1.0"?>
<svg xmlns="http://www.w3.org/2000/svg" viewBox="0 0 50 50">
    <path d="M25,2C12.318,2,2,12.317,2,25s10.318,23,23,23s23-10.317,23-23S37.682,2,25,2z M21.406,15.826 c0.315-0.54,1.008-0.721,1.548-0.406l1.004,0.588c0.539,0.316,0.721,1.009,0.406,1.549l-0.995,1.703l-2.957-1.73L21.406,15.826z M10.327,23.326h6.147l-1.957,3.306h-4.19V23.326z M11.807,36.074c-0.072,0.07-0.183,0.084-0.27,0.033 c-0.087-0.051-0.129-0.154-0.104-0.251l1.43-5.412l2.957,1.73L11.807,36.074z M13.236,29.805l6.932-11.861l2.957,1.73l-6.932,11.861 L13.236,29.805z M19.588,26.633l1.836-3.306h7.086l1.836,3.306H19.588z M23.183,13.019c-0.314-0.54-0.13-1.232,0.409-1.546 l0.92-0.535c0.54-0.314,1.231-0.13,1.545,0.409l7.84,13.497l-2.874,1.671L23.183,13.019z M31.345,27.07l2.874-1.671l1.662,2.861 l-2.874,1.671L31.345,27.07z M37.395,35.986c-0.066,0.091-0.236,0.015-0.286-0.065c-0.134-0.212-0.014-0.498-0.438-1.145 c-0.775-1.182-1.802-0.948-2.797-2.614c-0.175-0.293-0.768-1.637,0.001-2.097c0.409-0.245,1.106-0.657,1.573-0.922 c0.789-0.448,1.52,0.494,1.925,1.085C38.237,31.493,38.589,34.334,37.395,35.986z M39.63,26.633h-4.124l-1.799-3.306h5.923V26.633z"/>
</svg>
