<?xml version="1.0"?>
<svg xmlns="http://www.w3.org/2000/svg" viewBox="0 0 32 32">
    <path d="M 16 3 C 8.8321429 3 3 8.8321429 3 16 C 3 23.167857 8.8321429 29 16 29 C 23.167857 29 29 23.167857 29 16 C 29 8.8321429 23.167857 3 16 3 z M 16 5 C 22.086977 5 27 9.9130231 27 16 C 27 22.086977 22.086977 27 16 27 C 9.9130231 27 5 22.086977 5 16 C 5 9.9130231 9.9130231 5 16 5 z M 15.96875 8.25 C 15.889328 8.2600781 15.7925 8.301 15.71875 8.34375 L 15.21875 8.625 C 14.92475 8.796 14.829 9.17375 15 9.46875 L 19.28125 16.8125 L 20.84375 15.90625 L 16.5625 8.5625 C 16.4335 8.342 16.207016 8.2197656 15.96875 8.25 z M 14.65625 10.6875 C 14.417844 10.656328 14.16025 10.77875 14.03125 11 L 13.5 11.9375 L 15.125 12.875 L 15.65625 11.9375 C 15.82825 11.6425 15.7315 11.26575 15.4375 11.09375 L 14.875 10.78125 C 14.8015 10.73825 14.735719 10.697891 14.65625 10.6875 z M 13.375 12.15625 L 9.59375 18.625 L 11.1875 19.5625 L 14.96875 13.09375 L 13.375 12.15625 z M 8 15.09375 L 8 16.90625 L 10.28125 16.90625 L 11.34375 15.09375 L 8 15.09375 z M 14.0625 15.09375 L 13.0625 16.90625 L 18.90625 16.90625 L 17.90625 15.09375 L 14.0625 15.09375 z M 20.75 15.09375 L 21.71875 16.90625 L 23.96875 16.90625 L 23.96875 15.09375 L 20.75 15.09375 z M 21.03125 16.21875 L 19.46875 17.125 L 20.375 18.6875 L 21.9375 17.78125 L 21.03125 16.21875 z M 21.84375 18.1875 C 21.791164 18.196166 21.741375 18.2195 21.6875 18.25 C 21.4325 18.395 21.06675 18.616 20.84375 18.75 C 20.42475 19.001 20.74875 19.74725 20.84375 19.90625 C 21.38675 20.81525 21.952 20.69975 22.375 21.34375 C 22.606 21.69575 22.52075 21.85175 22.59375 21.96875 C 22.62075 22.01275 22.714 22.05 22.75 22 C 23.401 21.099 23.222 19.53275 22.75 18.84375 C 22.558375 18.561125 22.211852 18.126838 21.84375 18.1875 z M 9.375 18.96875 L 8.59375 21.90625 C 8.57975 21.95925 8.60925 22.0355 8.65625 22.0625 C 8.70325 22.0905 8.7735 22.06925 8.8125 22.03125 L 11 19.90625 L 9.375 18.96875 z"/>
</svg>
