<?xml version="1.0"?>
<svg xmlns="http://www.w3.org/2000/svg" viewBox="0 0 24 24">
    <path d="M 5 2 C 3.346 2 2 3.346 2 5 L 2 19 C 2 20.654 3.346 22 5 22 L 19 22 C 20.654 22 22 20.654 22 19 L 22 5 C 22 3.346 20.654 2 19 2 L 5 2 z M 5 4 L 19 4 C 19.552 4 20 4.449 20 5 L 20 19 C 20 19.552 19.552 20 19 20 L 5 20 C 4.448 20 4 19.552 4 19 L 4 5 C 4 4.449 4.448 4 5 4 z M 13.6875 6.15625 C 13.1055 6.19525 12.42825 6.5825 12.03125 7.0625 C 11.67225 7.4995 11.385 8.15325 11.5 8.78125 C 12.132 8.80225 12.8075 8.4275 13.1875 7.9375 C 13.5415 7.4805 13.7845 6.81425 13.6875 6.15625 z M 9.78125 8.6875 C 8.95125 8.6875 8.06 9.2005 7.5 10.0625 C 6.71 11.2775 6.848 13.551 8.125 15.5 C 8.583 16.196 9.16975 16.993 9.96875 17 C 10.67775 17.007 10.88075 16.53625 11.84375 16.53125 C 12.80675 16.52325 13.00875 17.006 13.71875 17 C 14.51775 16.994 15.13675 16.1325 15.59375 15.4375 C 15.92175 14.9395 16.0575 14.689 16.3125 14.125 C 14.4645 13.425 14.171 10.8165 16 9.8125 C 15.441 9.1165 14.64525 8.6875 13.90625 8.6875 C 12.92725 8.6875 12.52375 9.15625 11.84375 9.15625 C 11.14375 9.15625 10.62625 8.6875 9.78125 8.6875 z"/>
</svg>
