<?xml version="1.0"?>
<svg xmlns="http://www.w3.org/2000/svg" viewBox="0 0 32 32">
    <path style="line-height:normal;text-indent:0;text-align:start;text-decoration-line:none;text-decoration-style:solid;text-decoration-color:#000;text-transform:none;block-progression:tb;isolation:auto;mix-blend-mode:normal" d="M 16 3 C 8.8321429 3 3 8.8321429 3 16 C 3 23.167857 8.8321429 29 16 29 C 23.167857 29 29 23.167857 29 16 C 29 8.8321429 23.167857 3 16 3 z M 16 5 C 22.086977 5 27 9.9130231 27 16 C 27 22.086977 22.086977 27 16 27 C 9.9130231 27 5 22.086977 5 16 C 5 9.9130231 9.9130231 5 16 5 z M 23 9.03125 C 22.989 9.03125 22.97975 9.0322031 22.96875 9.0332031 L 22.966797 9.0332031 C 18.988797 9.0652031 15.02125 12.011 13.03125 14 C 11.03125 14 8.03125 15 7.03125 17 L 12.03125 17 L 11.03125 19 L 13 21 L 15 20 L 15 25 C 17 24 18 21 18 19 C 19.989 17.011 22.934797 13.043453 22.966797 9.0644531 L 23 9.03125 z M 19 12 C 19.552 12 20 12.448 20 13 C 20 13.552 19.552 14 19 14 C 18.448 14 18 13.552 18 13 C 18 12.448 18.448 12 19 12 z M 10.591797 19.591797 C 10.591797 19.591797 9.0078594 20.207094 9.0058594 22.996094 L 9 23 L 9.0039062 23 C 11.791906 22.998 12.408203 21.412109 12.408203 21.412109 L 12.21875 21.222656 C 12.21875 21.222656 11.502031 21.808594 10.207031 21.808594 L 10.197266 21.806641 L 10.197266 21.794922 C 10.197266 20.499922 10.783203 19.783203 10.783203 19.783203 L 10.591797 19.591797 z" font-weight="400" font-family="sans-serif" white-space="normal" overflow="visible"/>
</svg>
