<?xml version="1.0"?>
<svg xmlns="http://www.w3.org/2000/svg" viewBox="0 0 50 50">
    <path d="M 4 5 C 2.897 5 2 5.897 2 7 L 2 36 C 2 37.103 2.897 38 4 38 L 19 38 L 19 41 L 16 41 C 14.346 41 13 42.346 13 44 L 13 46 L 37 46 L 37 44 C 37 42.346 35.654 41 34 41 L 31 41 L 31 38 L 46 38 C 47.103 38 48 37.103 48 36 L 48 7 C 48 5.897 47.103 5 46 5 L 4 5 z M 4 7 L 46 7 L 46.001953 36 L 4 36 L 4 32 L 46 32 L 46 30 L 4 30 L 4 7 z M 41 33 L 41 35 L 43 35 L 43 33 L 41 33 z M 21 38 L 29 38 L 29 41 L 21 41 L 21 38 z M 16 43 L 34 43 C 34.551 43 35 43.449 35 44 L 15 44 C 15 43.449 15.449 43 16 43 z"/>
</svg>
