<?xml version="1.0"?>
<svg xmlns="http://www.w3.org/2000/svg" viewBox="0 0 50 50">
    <path style="line-height:normal;text-indent:0;text-align:start;text-decoration-line:none;text-decoration-style:solid;text-decoration-color:#000;text-transform:none;block-progression:tb;isolation:auto;mix-blend-mode:normal" d="M 25 3 C 23.35499 3 22 4.3549904 22 6 C 22 7.2931586 22.84267 8.3951413 24 8.8125 L 24 15 L 26 15 L 26 8.8125 C 27.15733 8.3951413 28 7.2931586 28 6 C 28 4.3549904 26.64501 3 25 3 z M 25 5 C 25.564129 5 26 5.4358706 26 6 C 26 6.5641294 25.564129 7 25 7 C 24.435871 7 24 6.5641294 24 6 C 24 5.4358706 24.435871 5 25 5 z M 8 12 C 6.3549904 12 5 13.35499 5 15 C 5 16.64501 6.3549904 18 8 18 C 8.6494857 18 9.2486659 17.782679 9.7421875 17.425781 L 14 19.863281 L 14 18 C 14 17.857 14.023969 17.718078 14.042969 17.580078 L 10.884766 15.773438 C 10.952427 15.524858 11 15.268696 11 15 C 11 13.35499 9.6450096 12 8 12 z M 42 12 C 40.35499 12 39 13.35499 39 15 C 39 15.269347 39.047256 15.526269 39.115234 15.775391 L 35.957031 17.582031 C 35.976031 17.719031 36 17.857 36 18 L 36 19.863281 L 40.257812 17.425781 C 40.751334 17.782679 41.350514 18 42 18 C 43.64501 18 45 16.64501 45 15 C 45 13.35499 43.64501 12 42 12 z M 8 14 C 8.5641294 14 9 14.435871 9 15 C 9 15.564129 8.5641294 16 8 16 C 7.4358706 16 7 15.564129 7 15 C 7 14.435871 7.4358706 14 8 14 z M 42 14 C 42.564129 14 43 14.435871 43 15 C 43 15.564129 42.564129 16 42 16 C 41.435871 16 41 15.564129 41 15 C 41 14.435871 41.435871 14 42 14 z M 17 17 A 1.0001 1.0001 0 0 0 16 18 L 16 32 A 1.0001 1.0001 0 0 0 17 33 L 33 33 A 1.0001 1.0001 0 0 0 34 32 L 34 18 A 1.0001 1.0001 0 0 0 33 17 L 17 17 z M 18 19 L 32 19 L 32 31 L 18 31 L 18 19 z M 23 21 A 1.0001 1.0001 0 1 0 23 23 L 27 23 A 1.0001 1.0001 0 1 0 27 21 L 23 21 z M 14 30.136719 L 9.7421875 32.574219 C 9.2486659 32.217321 8.6494857 32 8 32 C 6.3549904 32 5 33.35499 5 35 C 5 36.64501 6.3549904 38 8 38 C 9.6450096 38 11 36.64501 11 35 C 11 34.730653 10.952744 34.473731 10.884766 34.224609 L 14.042969 32.417969 C 14.023969 32.280969 14 32.143 14 32 L 14 30.136719 z M 36 30.136719 L 36 32 C 36 32.143 35.976031 32.281922 35.957031 32.419922 L 39.115234 34.226562 C 39.047573 34.475142 39 34.731304 39 35 C 39 36.64501 40.35499 38 42 38 C 43.64501 38 45 36.64501 45 35 C 45 33.35499 43.64501 32 42 32 C 41.350514 32 40.751334 32.217321 40.257812 32.574219 L 36 30.136719 z M 8 34 C 8.5641294 34 9 34.435871 9 35 C 9 35.564129 8.5641294 36 8 36 C 7.4358706 36 7 35.564129 7 35 C 7 34.435871 7.4358706 34 8 34 z M 42 34 C 42.564129 34 43 34.435871 43 35 C 43 35.564129 42.564129 36 42 36 C 41.435871 36 41 35.564129 41 35 C 41 34.435871 41.435871 34 42 34 z M 24 35 L 24 41.1875 C 22.84267 41.604859 22 42.706841 22 44 C 22 45.64501 23.35499 47 25 47 C 26.64501 47 28 45.64501 28 44 C 28 42.706841 27.15733 41.604859 26 41.1875 L 26 35 L 24 35 z M 25 43 C 25.564129 43 26 43.435871 26 44 C 26 44.564129 25.564129 45 25 45 C 24.435871 45 24 44.564129 24 44 C 24 43.435871 24.435871 43 25 43 z"/>
</svg>
