<?xml version="1.0"?>
<svg xmlns="http://www.w3.org/2000/svg" viewBox="0 0 50 50" enable-background="new 0 0 50 50">
    <path style="text-indent:0;text-align:start;line-height:normal;text-transform:none;block-progression:tb;-inkscape-font-specification:Bitstream Vera Sans" d="M 25 0 C 21.545161 0 17.948901 1.7698921 15 4.3125 C 12.051099 6.8551079 9.7335388 10.195054 9.125 13.625 C 8.5333869 17.090162 8.3832571 18.632133 8.34375 19.46875 C 8.0906266 19.521471 7.8153027 19.618935 7.53125 19.78125 C 6.9408134 20.118642 6.40625 20.906944 6.40625 21.8125 C 6.40625 23.234722 6.8536443 24.246866 6.90625 24.5625 C 6.936996 24.746976 7.0166551 25.431146 7.09375 26.125 C 7.167246 26.786463 7.2324868 27.476592 7.40625 28.09375 C 7.41476 28.12397 7.42857 28.15773 7.4375 28.1875 C 7.6038466 29.067073 7.6220186 29.807283 8.125 30.6875 C 8.325 31.0375 8.5561745 31.501018 9 31.90625 C 9.2839178 32.165479 9.6821273 32.351863 10.125 32.46875 C 10.186891 32.948766 10.238654 33.501186 10.34375 34.4375 C 10.485654 35.701739 10.705169 37.129087 11.3125 38.34375 C 12.181317 40.081385 15.961044 50.09375 25 50.09375 C 34.038956 50.09375 37.818683 40.081385 38.6875 38.34375 C 39.288868 37.141013 39.531981 35.707574 39.6875 34.4375 C 39.798758 33.52889 39.825077 32.994891 39.875 32.46875 C 40.317873 32.351863 40.716083 32.165479 41 31.90625 C 41.443825 31.501018 41.675 31.0375 41.875 30.6875 C 42.377981 29.807283 42.396153 29.067073 42.5625 28.1875 C 42.5714 28.15773 42.58524 28.12397 42.59375 28.09375 C 42.767513 27.476592 42.832754 26.786463 42.90625 26.125 C 42.98334 25.431146 43.063004 24.746976 43.09375 24.5625 C 43.14636 24.246866 43.59375 23.234722 43.59375 21.8125 C 43.59375 20.906944 43.059187 20.118642 42.46875 19.78125 C 42.184697 19.618934 41.909374 19.521475 41.65625 19.46875 C 41.618749 18.618353 41.472189 17.037507 40.875 13.625 C 40.266461 10.195054 37.948901 6.8551079 35 4.3125 C 32.051099 1.7698921 28.454839 0 25 0 z M 25 2 C 27.745161 2 31.042651 3.5363579 33.71875 5.84375 C 36.394849 8.1511421 38.414789 11.198696 38.90625 13.96875 C 39.524683 17.502655 39.664885 19.010833 39.6875 19.65625 C 39.585649 19.701312 39.480213 19.779834 39.375 19.84375 C 39.204342 19.168166 39.029908 18.511264 38.84375 17.90625 C 38.563162 16.994339 38.29509 16.1894 38.09375 15.5625 C 37.89241 14.9356 37.8125 14.383333 37.8125 14.5 C 37.8125 11.492674 36.354624 8.2174893 33.3125 6.90625 C 33.3042 6.90265 33.28962 6.90982 33.28125 6.90625 C 32.609695 6.6073443 31.901649 6.688198 31.34375 6.90625 C 30.776853 7.127819 30.263586 7.4439546 29.6875 7.75 C 28.535329 8.3620909 27.144326 9 25 9 C 22.855674 9 21.458995 8.3710181 20.3125 7.75 C 19.739253 7.4394909 19.242782 7.1096262 18.6875 6.875 C 18.132218 6.6403738 17.412136 6.5038957 16.71875 6.78125 A 1.0001 1.0001 0 0 0 16.6875 6.78125 C 13.720436 8.0867583 12.1875 11.360571 12.1875 14.40625 C 12.1875 14.34792 12.10684 14.870886 11.90625 15.5 C 11.705663 16.129114 11.43675 16.9385 11.15625 17.84375 C 10.96475 18.461774 10.799443 19.151727 10.625 19.84375 C 10.519787 19.779834 10.414351 19.701312 10.3125 19.65625 C 10.334978 19.027955 10.474579 17.595343 11.09375 13.96875 C 11.585211 11.198696 13.605151 8.1511421 16.28125 5.84375 C 18.957349 3.5363579 22.254839 2 25 2 z M 17.46875 8.625 C 17.47265 8.62345 17.49604 8.62646 17.5 8.625 C 17.55397 8.605064 17.59672 8.587963 17.90625 8.71875 C 18.238468 8.8591238 18.748247 9.1605091 19.375 9.5 C 20.628505 10.178982 22.444326 11 25 11 C 27.555674 11 29.377171 10.194159 30.625 9.53125 C 31.248914 9.1997954 31.741897 8.906556 32.0625 8.78125 C 32.383103 8.655944 32.399118 8.686255 32.46875 8.71875 A 1.0001 1.0001 0 0 0 32.5 8.71875 C 34.629309 9.6196115 35.8125 12.120988 35.8125 14.5 C 35.8125 15.116667 35.97634 15.530025 36.1875 16.1875 C 36.39866 16.844975 36.668088 17.624411 36.9375 18.5 C 37.387536 19.962617 37.804887 21.642863 37.9375 23.1875 L 36.6875 25.40625 L 35.875 25.40625 C 35.601301 24.156787 34.824126 23.105513 33.78125 22.4375 C 34.056487 22.333739 34.299812 22.219723 34.59375 22.09375 C 35.19375 21.69375 35.6875 21.09375 35.6875 21.09375 C 35.6875 21.09375 34.0125 20.8125 33.3125 20.8125 C 31.7125 20.8125 29.6125 21.0125 28.3125 21.8125 C 28.3125 21.8125 28.235788 22.371513 28.3125 22.8125 C 27.586399 23.434114 27.034265 24.268643 26.78125 25.21875 C 26.252239 25.029118 25.65111 24.90625 25 24.90625 C 24.34889 24.90625 23.747761 25.029118 23.21875 25.21875 C 22.964395 24.263611 22.426681 23.43173 21.6875 22.8125 C 21.764212 22.371513 21.6875 21.8125 21.6875 21.8125 C 20.3875 21.0125 18.2875 20.8125 16.6875 20.8125 C 15.9875 20.8125 14.3125 21.09375 14.3125 21.09375 C 14.3125 21.09375 14.80625 21.69375 15.40625 22.09375 C 15.700188 22.219723 15.943513 22.333739 16.21875 22.4375 C 15.175874 23.105513 14.398699 24.156787 14.125 25.40625 L 13.3125 25.40625 L 12.0625 23.15625 C 12.188395 21.59936 12.606221 19.910039 13.0625 18.4375 C 13.332 17.56775 13.600587 16.789636 13.8125 16.125 C 14.024413 15.460364 14.1875 15.014583 14.1875 14.40625 C 14.1875 12.061061 15.449604 9.5286784 17.46875 8.625 z M 9.09375 21.40625 A 1.0001 1.0001 0 0 0 9.15625 21.40625 C 9.15625 21.40625 9.2847396 21.38011 9.5 21.46875 C 9.7053083 21.553292 9.9246485 21.694876 10.125 22.1875 C 10.043338 22.795492 10 23.39255 10 24 C 10 24.635714 10.170464 25.29646 10.40625 26.21875 C 10.642036 27.14104 10.959435 28.227462 11.28125 29.28125 C 11.427455 29.759999 11.540959 30.145911 11.6875 30.59375 L 11.5 30.59375 A 1.0001 1.0001 0 0 0 10.78125 30.5 A 1.0001 1.0001 0 0 0 10.59375 30.5625 C 10.58661 30.560567 10.569188 30.564672 10.5625 30.5625 C 10.488319 30.538409 10.440587 30.497385 10.375 30.4375 C 10.243825 30.317732 10.075 30.06875 9.875 29.71875 C 9.5971265 29.232471 9.5900859 28.794179 9.375 27.71875 A 1.0001 1.0001 0 0 0 9.34375 27.625 C 9.2350508 27.262669 9.1354051 26.531146 9.0625 25.875 C 8.9895949 25.218854 8.9442539 24.665524 8.875 24.25 C 8.7276057 23.365634 8.40625 22.790278 8.40625 21.8125 C 8.40625 21.518056 8.421687 21.593858 8.53125 21.53125 C 8.6408134 21.46864 8.9048611 21.40625 9.09375 21.40625 z M 40.75 21.40625 C 40.80903 21.401705 40.84375 21.40625 40.84375 21.40625 A 1.0001 1.0001 0 0 0 40.90625 21.40625 C 41.095139 21.40625 41.359187 21.46864 41.46875 21.53125 C 41.578313 21.59386 41.59375 21.51806 41.59375 21.8125 C 41.59375 22.790278 41.272394 23.365634 41.125 24.25 C 41.05575 24.665524 41.010405 25.218854 40.9375 25.875 C 40.8646 26.531146 40.764949 27.262669 40.65625 27.625 A 1.0001 1.0001 0 0 0 40.625 27.71875 C 40.409914 28.794179 40.402873 29.232471 40.125 29.71875 C 39.925 30.06875 39.756175 30.317732 39.625 30.4375 C 39.599774 30.460532 39.585075 30.482795 39.5625 30.5 A 1.0001 1.0001 0 0 0 38.40625 30.59375 L 38.375 30.59375 C 38.508487 30.16255 38.61477 29.801879 38.75 29.34375 C 39.058316 28.299249 39.361515 27.231829 39.59375 26.3125 C 39.825985 25.393171 40 24.729464 40 24.09375 C 40 23.476136 39.959152 22.839188 39.875 22.21875 C 40.078437 21.70166 40.290638 21.554959 40.5 21.46875 C 40.60763 21.42443 40.69097 21.410795 40.75 21.40625 z M 18.34375 22.71875 C 18.35345 22.719481 18.365351 22.717993 18.375 22.71875 C 19.235302 22.786211 19.85045 22.955493 20.34375 23.09375 C 21.553771 23.70821 22.40625 24.959689 22.40625 26.40625 C 22.40625 28.455625 20.736876 30.09375 18.6875 30.09375 C 16.638124 30.09375 15 28.455625 15 26.40625 C 15 24.47436 16.46011 22.895185 18.34375 22.71875 z M 31.625 22.71875 C 33.523667 22.880477 35 24.46376 35 26.40625 C 35 28.455625 33.361876 30.09375 31.3125 30.09375 C 29.263124 30.09375 27.59375 28.455625 27.59375 26.40625 C 27.59375 24.959689 28.446229 23.70821 29.65625 23.09375 C 30.14955 22.955493 30.764698 22.786211 31.625 22.71875 z M 18.09375 23.5 C 17.49375 23.7 17.1125 24.2125 17.3125 24.8125 C 17.3125 25.6125 18.00625 26.3125 18.90625 26.3125 C 19.80625 26.3125 20.5 25.6125 20.5 24.8125 C 20.5 24.2125 20.1 23.7 19.5 23.5 C 19.6 23.6 19.6875 23.8 19.6875 24 C 19.6875 24.5 19.3125 24.8125 18.8125 24.8125 C 18.3125 24.8125 17.90625 24.4 17.90625 24 C 17.90625 23.8 17.89375 23.6 18.09375 23.5 z M 30.5 23.5 C 29.9 23.7 29.5 24.2125 29.5 24.8125 C 29.5 25.6125 30.19375 26.3125 31.09375 26.3125 C 31.99375 26.3125 32.6875 25.6125 32.6875 24.8125 C 32.8875 24.2125 32.50625 23.7 31.90625 23.5 C 32.10625 23.6 32.09375 23.8 32.09375 24 C 32.09375 24.4 31.6875 24.8125 31.1875 24.8125 C 30.6875 24.8125 30.3125 24.5 30.3125 24 C 30.3125 23.8 30.4 23.6 30.5 23.5 z M 12.375 25.8125 L 12.5625 26.15625 A 0.50005 0.50005 0 0 0 13 26.40625 L 14 26.40625 C 14 28.996065 16.097684 31.09375 18.6875 31.09375 C 21.277316 31.09375 23.40625 28.996065 23.40625 26.40625 C 23.40625 26.341077 23.37767 26.283312 23.375 26.21875 C 23.851897 26.019167 24.395203 25.90625 25 25.90625 C 25.604797 25.90625 26.148103 26.019167 26.625 26.21875 C 26.62233 26.283312 26.59375 26.341077 26.59375 26.40625 C 26.59375 28.996065 28.722684 31.09375 31.3125 31.09375 C 33.902316 31.09375 36 28.996065 36 26.40625 L 37 26.40625 A 0.50005 0.50005 0 0 0 37.4375 26.15625 L 37.65625 25.8125 C 37.43536 26.686921 37.147934 27.750751 36.84375 28.78125 C 36.539566 29.811749 36.207282 30.823589 35.96875 31.59375 C 35.849484 31.97883 35.763292 32.317211 35.6875 32.5625 C 35.63598 32.729227 35.62195 32.809365 35.59375 32.90625 C 35.59065 32.9169 35.56549 32.9269 35.5625 32.9375 C 35.47776 33.100726 35.197146 33.357275 34.84375 33.625 C 34.474654 33.904618 34.1095 34.031083 33.6875 34.59375 A 1.0001 1.0001 0 0 0 33.625 34.71875 C 33.345627 35.207653 33.310813 35.538821 33.1875 36.0625 C 33.064187 36.586179 32.930116 37.18431 32.78125 37.75 C 32.77435 37.71019 32.75691 37.66349 32.75 37.625 C 32.72107 37.463796 32.69086 37.329914 32.65625 37.1875 C 32.62164 37.045086 32.64029 36.960433 32.4375 36.65625 A 1.0001 1.0001 0 0 0 32.375 36.5625 C 31.982005 36.071256 31.433612 35.746243 30.625 35.4375 C 29.816388 35.128757 28.765942 34.90625 27.5 34.90625 C 26.995513 34.90625 26.479517 35.097914 26.15625 35.375 C 25.832983 35.652086 25.68803 35.915843 25.59375 36.0625 C 25.49947 36.209157 25.488624 36.237158 25.46875 36.25 C 25.44888 36.26284 25.3815 36.3125 25.09375 36.3125 C 24.839583 36.3125 24.803749 36.26488 24.78125 36.25 C 24.75875 36.23512 24.73002 36.18601 24.625 36.03125 C 24.519981 35.876485 24.357606 35.609905 24.03125 35.34375 C 23.704894 35.077595 23.191987 34.90625 22.6875 34.90625 C 20.065278 34.90625 18.547702 35.643497 17.8125 36.5625 A 1.0001 1.0001 0 0 0 17.78125 36.65625 C 17.589129 36.944432 17.599944 37.016097 17.5625 37.15625 C 17.52506 37.296403 17.47061 37.463592 17.4375 37.625 C 17.42355 37.69301 17.42039 37.771752 17.40625 37.84375 C 17.39935 37.81713 17.38177 37.80806 17.375 37.78125 C 17.232892 37.218737 17.115323 36.58626 17 36.0625 C 16.884677 35.53874 16.850778 35.223237 16.5625 34.71875 A 1.0001 1.0001 0 0 0 16.5 34.59375 C 16.078 34.031083 15.712846 33.904618 15.34375 33.625 C 14.974654 33.345382 14.695203 33.064207 14.625 32.90625 A 1.0001 1.0001 0 0 0 14.5625 32.78125 C 14.65362 32.933123 14.52634 32.70696 14.4375 32.46875 C 14.348655 32.230542 14.225245 31.886797 14.09375 31.5 C 13.830759 30.726407 13.503185 29.721212 13.1875 28.6875 C 12.881913 27.686853 12.596377 26.67041 12.375 25.8125 z M 12.34375 32.5 C 12.421578 32.731294 12.497198 32.981166 12.5625 33.15625 C 12.64684 33.382369 12.675582 33.52282 12.78125 33.71875 C 12.79219 33.74337 12.80106 33.75729 12.8125 33.78125 C 12.82 33.79689 12.83608 33.79714 12.84375 33.8125 C 13.178545 34.483249 13.69409 34.923553 14.125 35.25 C 14.560247 35.579733 14.944544 35.890506 14.875 35.78125 C 14.84932 35.76717 14.93451 36.060651 15.03125 36.5 C 15.140927 36.998115 15.279608 37.625013 15.4375 38.25 C 15.595392 38.874987 15.755574 39.513175 16.03125 40.0625 C 16.169088 40.337162 16.341993 40.601706 16.59375 40.84375 C 16.845507 41.085794 17.231944 41.3125 17.6875 41.3125 C 18.004167 41.3125 18.260529 41.155083 18.40625 41.03125 C 18.551971 40.907417 18.62825 40.785016 18.6875 40.6875 C 18.806 40.492469 18.880972 40.328863 18.9375 40.15625 C 19.050556 39.811025 19.140928 39.445127 19.21875 39.0625 C 19.29657 38.679873 19.347469 38.286558 19.40625 38 C 19.42944 37.886954 19.45129 37.821333 19.46875 37.75 C 19.638011 37.597111 20.632748 36.90625 22.6875 36.90625 C 22.833013 36.90625 22.78573 36.90995 22.78125 36.90625 C 22.77675 36.90255 22.83627 36.96102 22.96875 37.15625 C 23.101231 37.351485 23.313124 37.658631 23.6875 37.90625 C 24.061876 38.153869 24.547917 38.3125 25.09375 38.3125 C 25.656005 38.3125 26.176124 38.155908 26.5625 37.90625 C 26.948876 37.656592 27.15053 37.359593 27.28125 37.15625 C 27.395211 36.978977 27.432521 36.917524 27.4375 36.90625 C 27.429251 36.912239 27.427244 36.90625 27.5 36.90625 C 28.534058 36.90625 29.339862 37.064993 29.90625 37.28125 C 30.435046 37.483154 30.702636 37.73818 30.75 37.78125 C 30.76351 37.84615 30.76497 37.909319 30.78125 38 C 30.83276 38.286966 30.896438 38.643396 30.96875 39.03125 C 31.04106 39.419104 31.093204 39.82363 31.21875 40.1875 C 31.28152 40.369435 31.355324 40.542192 31.5 40.75 C 31.644676 40.957808 31.970833 41.3125 32.5 41.3125 C 32.970833 41.3125 33.355944 41.054186 33.59375 40.8125 C 33.831556 40.570814 33.992434 40.301365 34.125 40.03125 C 34.390131 39.49102 34.555116 38.90306 34.71875 38.28125 C 34.882384 37.65944 35.038938 37.029446 35.15625 36.53125 C 35.260293 36.089405 35.36514 35.772916 35.34375 35.78125 C 35.27567 35.88901 35.627871 35.579264 36.0625 35.25 C 36.518404 34.904618 37.076453 34.460793 37.40625 33.71875 A 1.0001 1.0001 0 0 0 37.46875 33.53125 C 37.45509 33.58587 37.51915 33.39768 37.59375 33.15625 C 37.639784 33.007268 37.721022 32.774538 37.78125 32.5625 A 1.0001 1.0001 0 0 0 37.90625 32.59375 C 37.854376 33.097701 37.796861 33.580849 37.71875 34.21875 C 37.574269 35.398676 37.304882 36.640237 36.90625 37.4375 C 35.775067 39.699865 32.561044 48.09375 25 48.09375 C 17.438956 48.09375 14.224933 39.699865 13.09375 37.4375 C 12.701081 36.652163 12.476846 35.404511 12.34375 34.21875 C 12.275766 33.613078 12.235213 33.069554 12.1875 32.5625 A 1.0001 1.0001 0 0 0 12.34375 32.5 z M 21.6875 39 C 21.296898 39.02058 20.895433 39.09282 20.5 39.3125 A 1.0077822 1.0077822 0 0 0 21.5 41.0625 C 21.609134 41.00187 21.951859 40.9808 22.59375 41.0625 C 23.235641 41.1442 24.082639 41.3125 25.09375 41.3125 C 26.104861 41.3125 26.930209 41.143409 27.53125 41.0625 C 28.132291 40.98159 28.442467 40.98686 28.65625 41.09375 A 1.0001 1.0001 0 1 0 29.5625 39.3125 C 28.776283 38.919392 27.980209 38.968409 27.28125 39.0625 C 26.582291 39.15659 25.882639 39.3125 25.09375 39.3125 C 24.304861 39.3125 23.576859 39.155805 22.84375 39.0625 C 22.477195 39.015848 22.078102 38.979423 21.6875 39 z"/>
</svg>
