<?xml version="1.0"?>
<svg xmlns="http://www.w3.org/2000/svg" viewBox="0 0 26 26" enable-background="new 0 0 26 26">
    <path style="text-indent:0;text-align:start;line-height:normal;text-transform:none;block-progression:tb;-inkscape-font-specification:Bitstream Vera Sans" d="M 13 0 C 9.6 0 5.50625 3.60625 4.90625 6.90625 C 4.5949856 8.618204 4.4796844 9.4586066 4.4375 10 L 4.40625 10 C 4.2019167 10 3.8947163 10.026985 3.59375 10.1875 C 3.2927837 10.348015 3 10.7245 3 11.1875 C 3 11.896167 3.254059 12.480927 3.34375 12.75 C 3.33705 12.7299 3.381346 13.126439 3.40625 13.5 C 3.431154 13.873561 3.467725 14.276128 3.53125 14.59375 C 3.621414 15.04457 3.616683 15.514617 3.875 16.03125 C 3.9822896 16.245829 4.1034273 16.487231 4.34375 16.6875 C 4.5840727 16.887769 4.931 17 5.3125 17 L 5.46875 17 C 5.4824202 17.189708 5.4920907 17.37229 5.5 17.59375 C 5.5 17.89375 5.5 18.90625 6 19.90625 C 6.6 21.00625 8.5 26 13 26 C 17.5 26 19.40625 21.00625 19.90625 19.90625 C 20.40625 18.80625 20.40625 17.79375 20.40625 17.59375 C 20.414159 17.37229 20.42383 17.189708 20.4375 17 L 20.6875 17 C 21.069 17 21.415927 16.887769 21.65625 16.6875 C 21.896573 16.487231 22.01771 16.245829 22.125 16.03125 C 22.383317 15.514617 22.378586 15.04457 22.46875 14.59375 C 22.53227 14.276128 22.568846 13.873561 22.59375 13.5 C 22.61865 13.126439 22.66295 12.729901 22.65625 12.75 C 22.745941 12.480927 23 11.896167 23 11.1875 C 23 10.7245 22.707216 10.348015 22.40625 10.1875 C 22.105284 10.026985 21.798083 10 21.59375 10 L 21.5625 10 C 21.51925 9.4746557 21.402502 8.6043861 21.09375 6.90625 C 20.49375 3.60625 16.4 1.1842379e-15 13 0 z M 8.5625 3.15625 C 9.3736572 3.0463867 10.65625 4.8125 13 4.8125 C 15.5 4.8125 16.79375 2.8875 17.59375 3.1875 C 18.99375 3.7875 19.8125 5.69375 19.8125 7.09375 C 19.723046 7.5410214 19.995985 10.636642 20.0625 11.90625 L 19.34375 13.25 L 18.78125 13.25 C 18.665474 12.600053 18.294929 12.047648 17.78125 11.6875 C 17.919301 11.639126 18.023566 11.581967 18.1875 11.5 C 18.4875 11.3 18.8125 11 18.8125 11 C 18.8125 11 17.9 10.8125 17.5 10.8125 C 16.7 10.7125 15.5125 10.9125 14.8125 11.3125 C 14.8125 11.3125 14.763978 11.580194 14.8125 11.8125 C 14.405907 12.149885 14.118972 12.623067 14 13.15625 C 13.669549 13.026064 13.335842 12.9375 13 12.9375 C 12.654166 12.9375 12.306974 13.014376 12 13.15625 C 11.881977 12.627318 11.590294 12.182261 11.1875 11.84375 C 11.245978 11.606979 11.1875 11.3125 11.1875 11.3125 C 10.4875 10.9125 9.3 10.7125 8.5 10.8125 C 8.1 10.8125 7.1875 11 7.1875 11 C 7.1875 11 7.5125 11.3 7.8125 11.5 C 7.9764344 11.581967 8.0806988 11.639126 8.21875 11.6875 C 7.7050713 12.047648 7.3345263 12.600053 7.21875 13.25 L 6.65625 13.25 L 5.9375 11.90625 C 5.9885944 10.648654 6.1875 7.6297178 6.1875 7.09375 C 6.1875 5.69375 7.00625 3.7875 8.40625 3.1875 C 8.45625 3.1625 8.5084229 3.1635742 8.5625 3.15625 z M 4.40625 11 L 4.71875 11 C 5.0960422 11.704058 4.6875 11.857311 4.6875 13.1875 C 4.7635688 14.328532 5.1292042 14.674485 5.34375 16 L 5.3125 16 C 5.094 16 5.0284273 15.987231 4.96875 15.9375 C 4.9090727 15.887769 4.8427104 15.779171 4.75 15.59375 C 4.6083167 15.310383 4.578586 14.95543 4.46875 14.40625 C 4.4322745 14.223872 4.400096 13.813939 4.375 13.4375 C 4.349904 13.061061 4.3566996 12.757599 4.25 12.4375 C 4.139691 12.106573 4 11.678833 4 11.1875 C 4 11.0505 3.9884663 11.101985 4.0625 11.0625 C 4.1365337 11.023015 4.3105833 11 4.40625 11 z M 21.3125 11 L 21.59375 11 C 21.68942 11 21.863466 11.02301 21.9375 11.0625 C 22.01153 11.10199 22 11.0505 22 11.1875 C 22 11.678833 21.860309 12.106573 21.75 12.4375 C 21.6433 12.757599 21.6501 13.061061 21.625 13.4375 C 21.5999 13.813939 21.56773 14.223872 21.53125 14.40625 C 21.421414 14.95543 21.391683 15.310383 21.25 15.59375 C 21.15729 15.779171 21.090927 15.887769 21.03125 15.9375 C 20.971573 15.987231 20.906 16 20.6875 16 L 20.5625 16 C 20.777046 14.674485 21.111431 14.328532 21.1875 13.1875 C 21.2725 11.9125 20.887925 11.805375 21.3125 11 z M 9.09375 11.8125 C 9.82108 11.829493 10.32364 12.017033 10.65625 12.09375 C 10.674082 12.097863 10.701861 12.090327 10.71875 12.09375 C 11.230684 12.441694 11.5625 13.021897 11.5625 13.6875 C 11.5625 14.767416 10.673667 15.65625 9.59375 15.65625 C 8.5138336 15.65625 7.65625 14.767416 7.65625 13.6875 C 7.65625 12.77903 8.2581365 12.028099 9.09375 11.8125 z M 16.90625 11.8125 C 17.741863 12.028099 18.34375 12.77903 18.34375 13.6875 C 18.34375 14.767416 17.486166 15.65625 16.40625 15.65625 C 15.326333 15.65625 14.4375 14.767416 14.4375 13.6875 C 14.4375 13.021897 14.769316 12.441694 15.28125 12.09375 C 15.289695 12.092038 15.303821 12.09564 15.3125 12.09375 C 15.319843 12.088899 15.336338 12.098505 15.34375 12.09375 C 15.677009 12.016883 16.176604 11.828852 16.90625 11.8125 z M 9.3125 12.1875 C 8.9125 12.2875 8.70625 12.60625 8.90625 12.90625 C 8.90625 13.30625 9.3125 13.6875 9.8125 13.6875 C 10.3125 13.6875 10.6875 13.30625 10.6875 12.90625 C 10.6875 12.60625 10.39375 12.2875 10.09375 12.1875 C 10.09375 12.2875 10.1875 12.4 10.1875 12.5 C 10.1875 12.7 9.9875 12.90625 9.6875 12.90625 C 9.3875 12.90625 9.1875 12.7 9.1875 12.5 C 9.1875 12.4 9.2125 12.2875 9.3125 12.1875 z M 15.90625 12.1875 C 15.60625 12.2875 15.3125 12.60625 15.3125 12.90625 C 15.3125 13.30625 15.6875 13.6875 16.1875 13.6875 C 16.6875 13.6875 17.09375 13.30625 17.09375 12.90625 C 17.29375 12.60625 17.0875 12.2875 16.6875 12.1875 C 16.7875 12.2875 16.8125 12.4 16.8125 12.5 C 16.8125 12.7 16.6125 12.90625 16.3125 12.90625 C 16.0125 12.90625 15.8125 12.7 15.8125 12.5 C 15.8125 12.4 15.90625 12.2875 15.90625 12.1875 z M 20.03125 13.03125 C 19.879946 14.326324 19.275353 17.324295 19.1875 17.5 C 18.9875 18 18.29375 18.3 18.09375 18.5 C 17.89375 18.9 17.6 21.1875 17 21.1875 C 16.7 21.1875 16.6 19.7 16.5 19.5 C 16.3 19.2 15.5125 18.8125 14.3125 18.8125 C 13.6125 18.8125 13.9 19.49375 13 19.59375 C 12.1 19.59375 12.3875 18.8125 11.6875 18.8125 C 10.3875 18.8125 9.7 19.2 9.5 19.5 C 9.4 19.7 9.3 21.1875 9 21.1875 C 8.4 21.1875 8.10625 18.8 7.90625 18.5 C 7.70625 18.3 7.0125 18 6.8125 17.5 C 6.7234144 17.321829 6.1930286 14.35443 6 13.09375 L 6.28125 13.625 A 0.250025 0.250025 0 0 0 6.375 13.71875 A 0.250025 0.250025 0 0 0 6.46875 13.75 A 0.250025 0.250025 0 0 0 6.5 13.75 L 7.15625 13.75 C 7.1890004 15.072144 8.2643847 16.15625 9.59375 16.15625 C 10.943887 16.15625 12.0625 15.037636 12.0625 13.6875 C 12.307972 13.534198 12.657112 13.4375 13 13.4375 C 13.308378 13.4375 13.620143 13.518423 13.9375 13.65625 C 13.937368 13.666604 13.9375 13.677114 13.9375 13.6875 C 13.9375 15.037636 15.056113 16.15625 16.40625 16.15625 C 17.735615 16.15625 18.811 15.072144 18.84375 13.75 L 19.5 13.75 A 0.250025 0.250025 0 0 0 19.5625 13.75 A 0.250025 0.250025 0 0 0 19.65625 13.6875 A 0.250025 0.250025 0 0 0 19.6875 13.65625 A 0.250025 0.250025 0 0 0 19.71875 13.625 L 20.03125 13.03125 z M 10.5 20.59375 C 11 20.49375 12.50625 20.8125 12.90625 20.8125 C 13.30625 20.8125 14.9125 20.49375 15.3125 20.59375 C 15.7125 20.69375 16.1875 21.79375 16.1875 22.09375 C 16.1875 22.39375 16.49375 23.3125 15.09375 23.3125 C 13.99375 23.3125 15.2 21.8875 15 21.6875 C 14.8 21.4875 13.5 21.90625 13 21.90625 C 12.5 21.90625 11.2 21.4875 11 21.6875 C 10.8 21.8875 12.10625 23.3125 10.90625 23.3125 C 9.50625 23.3125 9.59375 22.39375 9.59375 22.09375 C 9.59375 21.79375 10 20.69375 10.5 20.59375 z"/>
</svg>
