<?xml version="1.0"?>
<svg xmlns="http://www.w3.org/2000/svg" viewBox="0 0 24 24">
    <path style="text-indent:0;text-align:start;line-height:normal;text-transform:none;block-progression:tb;-inkscape-font-specification:Sans" d="M 4 3 C 2.9069372 3 2 3.9069372 2 5 L 2 15 C 2 16.093063 2.9069372 17 4 17 L 20 17 C 21.093063 17 22 16.093063 22 15 L 22 5 C 22 3.9069372 21.093063 3 20 3 L 4 3 z M 4 5 L 20 5 L 20 15 L 4 15 L 4 5 z M 14.5625 7.3125 L 11.03125 10.5625 L 9.46875 9.03125 L 8.0625 10.4375 L 10.28125 12.65625 L 10.96875 13.3125 L 11.65625 12.6875 L 15.90625 8.78125 L 14.5625 7.3125 z M 10 18 L 10 19 L 7 19 L 7 21 L 17 21 L 17 19 L 14 19 L 14 18 L 10 18 z" overflow="visible" font-family="Sans"/>
</svg>
