<?xml version="1.0" encoding="UTF-8"?>
<svg width="769px" height="769px" viewBox="0 0 769 769" version="1.1" xmlns="http://www.w3.org/2000/svg" xmlns:xlink="http://www.w3.org/1999/xlink">
    <!-- Generator: Sketch 52.4 (67378) - http://www.bohemiancoding.com/sketch -->
    <title>CircleMaskLogo</title>
    <desc>Created with Sketch.</desc>
    <g id="CircleMaskLogo" stroke="none" stroke-width="1" fill="none" fill-rule="evenodd">
        <path d="M384.765115,769.265115 C172.411628,769.265115 0.265114732,597.118601 0.265114732,384.765115 C0.265114732,172.411628 172.411628,0.265114732 384.765115,0.265114732 C597.118601,0.265114732 769.265115,172.411628 769.265115,384.765115 C769.265115,597.118601 597.118601,769.265115 384.765115,769.265115 Z M78.0443719,484.490691 L78.0443719,392.668353 C90.9535274,405.792738 105.583684,412.354832 121.935281,412.354832 C140.868709,412.354832 156.550707,405.40955 168.981746,391.518777 C181.508408,377.532206 187.771645,360.049254 187.771645,339.069398 C187.771645,317.610549 181.460597,299.840206 168.838311,285.757837 C156.407273,271.579669 140.581842,264.490691 121.361544,264.490691 C105.201193,264.490691 90.7622806,270.861191 78.0443719,283.602383 L78.0443719,268.370508 L45.7716447,268.370508 L45.7716447,484.490691 L78.0443719,484.490691 Z M154.857431,339.069045 C154.857431,351.600308 151.109293,362.04287 143.612906,370.397045 C136.308733,378.75122 127.034495,382.928245 115.789913,382.928245 C103.872578,382.928245 94.2619688,378.798686 86.9577961,370.539445 C79.5575158,362.090336 75.8574311,351.362977 75.8574311,338.357045 C75.8574311,325.066312 79.5575158,314.338953 86.9577961,306.174645 C94.3580764,298.010338 104.016739,293.928245 115.934073,293.928245 C127.178655,293.928245 136.500946,298.152736 143.901227,306.601845 C151.205399,314.95602 154.857431,325.778312 154.857431,339.069045 Z M251.919137,267.867585 L219.919137,267.867585 L219.919137,406.867585 L251.919137,406.867585 L251.919137,267.867585 Z M322.276262,165.80945 L290.276262,165.80945 L290.276262,407.80945 L322.276262,407.80945 L322.276262,165.80945 Z M215.272691,216.590862 C215.272691,222.515806 217.327278,227.532821 221.436513,231.642056 C225.545749,235.751292 230.514982,237.805879 236.344363,237.805879 C242.173744,237.805879 247.095196,235.751292 251.108868,231.642056 C255.218104,227.532821 257.272691,222.563587 257.272691,216.734206 C257.272691,210.904826 255.218104,205.983373 251.108868,201.969701 C246.999633,197.860466 242.030399,195.805879 236.201018,195.805879 C230.467201,195.805879 225.545749,197.860466 221.436513,201.969701 C217.327278,206.078937 215.272691,210.952608 215.272691,216.590862 Z M570.577193,298.130433 L595.627596,298.130433 L595.627596,267.995197 L570.577193,267.995197 L570.577193,216.765294 L538.369532,216.765294 L538.369532,267.995197 L524.627596,267.995197 L524.627596,298.130433 L538.369532,298.130433 L538.369532,407.765294 L570.577193,407.765294 L570.577193,298.130433 Z M497.428726,46.5596667 L357.312842,46.5596667 L357.312842,78.8949961 L429.672482,78.8949961 C444.345882,78.8949961 455.087034,80.9788076 461.896259,85.1464931 C468.705483,89.3141786 472.110045,95.9488428 472.110045,105.050685 C472.110045,119.422014 459.642637,126.607571 434.707447,126.607571 L357.312842,126.607571 L357.312842,159.086613 L429.672482,159.086613 C444.537691,159.086613 455.326794,161.122521 462.040115,165.194397 C468.753435,169.266274 472.110045,175.757227 472.110045,184.667451 C472.110045,192.33216 469.280902,197.841087 463.622532,201.194397 C458.060067,204.451899 448.565656,206.080625 435.139016,206.080625 L357.312842,206.080625 L357.312842,238.559667 L443.914241,238.559667 C482.180166,238.559667 501.312842,222.799345 501.312842,191.27823 C501.312842,173.936826 494.407816,160.18846 480.597557,150.032721 C494.407816,140.83507 501.312842,128.332201 501.312842,112.523739 C501.312842,105.433883 500.114053,99.5417261 497.716438,94.8470919 C495.414729,90.4398842 491.003184,85.1225721 484.481673,78.8949961 L497.428726,78.8949961 L497.428726,46.5596667 Z M353.752182,336.995975 C353.752182,358.47454 360.826862,376.309153 374.976436,390.500348 C389.126009,404.883316 406.669305,412.074692 427.60685,412.074692 C448.735605,412.074692 466.565712,405.027143 481.097706,390.931835 C495.534095,376.74064 502.752182,359.145739 502.752182,338.146606 C502.752182,317.339246 495.581897,299.792288 481.241113,285.505207 C466.709119,271.218125 449.022418,264.074692 428.180478,264.074692 C407.434144,264.074692 389.843046,271.170183 375.406657,285.361378 C360.970268,299.552573 353.752182,316.763933 353.752182,336.995975 Z M387.252182,336.726785 C387.252182,323.815787 391.02877,313.278292 398.582061,305.113985 C406.135351,296.949677 416.001689,292.867585 428.18137,292.867585 C440.549883,292.867585 450.510636,296.949677 458.063926,305.113985 C465.522801,313.183359 469.252182,323.958184 469.252182,337.438785 C469.252182,350.919386 465.522801,361.694211 458.063926,369.763585 C450.605052,377.832959 440.644299,381.867585 428.18137,381.867585 C415.812857,381.867585 405.852104,377.785492 398.298814,369.621185 C390.934356,361.551811 387.252182,350.587121 387.252182,336.726785 Z M498.135833,602.283151 L358.019949,602.283151 L358.019949,634.607346 L425.632336,634.607346 C443.086969,634.607346 455.314619,636.800411 462.315653,641.186607 C469.412592,645.668155 472.961008,653.248533 472.961008,663.927966 C472.961008,673.749231 470.27572,680.519128 464.905064,684.237859 C459.630312,688.051942 450.08795,689.958955 436.277691,689.958955 L358.019949,689.958955 L358.019949,722.283151 L443.902067,722.283151 C463.658409,722.283151 477.900025,718.373774 486.627341,710.554903 C496.889131,701.496455 502.019949,688.862493 502.019949,672.652638 C502.019949,658.54053 496.409615,645.858892 485.18878,634.607346 L498.135833,634.607346 L498.135833,602.283151 Z M323.114084,458.710881 C314.472314,440.204796 301.272446,430.951892 283.514084,430.951892 C271.453592,430.951892 261.19758,434.93112 252.745739,442.889696 C244.483827,450.848271 240.352933,460.916198 240.352933,473.093777 C240.352933,482.298877 242.774492,489.825851 247.617681,495.674924 C251.416261,500.277474 257.968714,504.879955 267.275235,509.482504 C270.598993,511.112574 273.875219,512.694677 277.104012,514.22886 C280.332805,515.763043 283.56155,517.345146 286.790343,518.975216 C295.147219,523.961311 299.325595,529.330872 299.325595,535.084059 C299.325595,545.05625 293.912699,550.042271 283.086746,550.042271 C277.673769,550.042271 273.020578,548.220456 269.127034,544.576771 C267.132779,542.754928 264.236405,538.488045 260.437825,531.775993 L233.088185,544.576771 C242.774564,567.493633 259.250658,578.951892 282.516962,578.951892 C296.096886,578.951892 307.682381,574.637066 317.273796,566.007286 C327.150105,556.898073 332.088185,545.583641 332.088185,532.063651 C332.088185,521.516141 329.144329,513.126202 323.25653,506.893583 C317.368731,500.660964 305.92568,493.853128 288.927034,486.469871 C276.581648,481.196116 270.409048,475.874497 270.409048,470.504856 C270.409048,467.43649 271.453642,464.919508 273.542861,462.953836 C275.63208,460.988163 278.148602,460.005342 281.092501,460.005342 C287.265194,460.005342 292.440682,464.320168 296.61912,472.949948 L323.114084,458.710881 Z M352.337968,503.873175 C352.337968,525.35174 359.412649,543.186353 373.562222,557.377548 C387.711796,571.760516 405.255092,578.951892 426.192636,578.951892 C447.321391,578.951892 465.151498,571.904344 479.683493,557.809035 C494.119882,543.61784 501.337968,526.02294 501.337968,505.023807 C501.337968,484.216446 494.167684,466.669489 479.8269,452.382407 C465.294905,438.095326 447.608204,430.951892 426.766265,430.951892 C406.019931,430.951892 388.428833,438.047383 373.992444,452.238578 C359.556055,466.429773 352.337968,483.641133 352.337968,503.873175 Z M387.252182,505.018199 C387.252182,492.107201 391.02877,481.569706 398.582061,473.405399 C406.135351,465.241091 416.001689,461.158999 428.18137,461.158999 C440.549883,461.158999 450.510636,465.241091 458.063926,473.405399 C465.522801,481.474773 469.252182,492.249598 469.252182,505.730199 C469.252182,519.2108 465.522801,529.985625 458.063926,538.054999 C450.605052,546.124373 440.644299,550.158999 428.18137,550.158999 C415.812857,550.158999 405.852104,546.076906 398.298814,537.912599 C390.934356,529.843225 387.252182,518.878535 387.252182,505.018199 Z M569.803856,567.924891 L604.930897,567.924891 L604.930897,537.819996 L569.803856,537.819996 L569.803856,491.802514 C569.803856,480.333925 570.807475,472.592743 572.814745,468.578737 C574.822014,464.46916 578.693119,462.414402 584.428175,462.414402 C588.920635,462.414402 594.655605,464.182449 601.633257,467.718598 L604.930897,469.438877 L604.930897,436.466849 C596.232729,433.121844 589.016225,431.449367 583.28117,431.449367 C567.223013,431.449367 554.988411,436.514584 546.576995,446.645171 C540.459602,453.908611 537.400952,466.332729 537.400952,483.917898 L537.400952,537.819996 L525.930897,537.819996 L525.930897,567.924891 L537.400952,567.924891 L537.400952,677.449367 L569.803856,677.449367 L569.803856,567.924891 Z M672.40057,466.421847 L697.450973,466.421847 L697.450973,436.28661 L672.40057,436.28661 L672.40057,385.056708 L640.192908,385.056708 L640.192908,436.28661 L626.450973,436.28661 L626.450973,466.421847 L640.192908,466.421847 L640.192908,576.056708 L672.40057,576.056708 L672.40057,466.421847 Z" id="Combined-Shape" fill="#000000" transform="translate(384.765115, 384.765115) rotate(-45.000000) translate(-384.765115, -384.765115) "></path>
    </g>
</svg>