<?xml version="1.0" encoding="utf-8"?>
<!-- Generator: Adobe Illustrator 21.1.0, SVG Export Plug-In . SVG Version: 6.00 Build 0)  -->
<!DOCTYPE svg PUBLIC "-//W3C//DTD SVG 1.1//EN" "http://www.w3.org/Graphics/SVG/1.1/DTD/svg11.dtd">
<svg version="1.1" id="Layer_1" xmlns="http://www.w3.org/2000/svg" xmlns:xlink="http://www.w3.org/1999/xlink" x="0px" y="0px"
	 viewBox="0 0 459 100" style="enable-background:new 0 0 459 100;" xml:space="preserve">
<style type="text/css">
	.st0{fill:#2D2D2D;}
	.st1{fill:#EF3939;}
	.st2{fill:url(#SVGID_1_);}
	.st3{fill:#FFFFFF;}
</style>
<g>
	<path class="st0" d="M114.5,25.7h12.4l10.9,24.7l10.9-24.7h12.4l-23.3,49.9L114.5,25.7z"/>
	<path class="st0" d="M176.5,25.7h11.1v49.4h-11.1V25.7z"/>
	<path class="st0" d="M203.3,25.7h12.4l10.9,24.7l10.9-24.7h12.4l-23.3,49.9L203.3,25.7z"/>
	<path class="st0" d="M275,25.1l24.3,49.9h-11.7l-3.5-7.7h-18.2l-3.5,7.7h-11.7L275,25.1z M279.7,58.4L275,48.1l-4.7,10.3H279.7z"/>
	<path class="st0" d="M315.1,25.7h11.1V64h19.2v11.1h-30.3V25.7z"/>
	<path class="st0" d="M367.1,25.7h17.3c13.9,0,25.1,11.1,25.1,24.7c0,13.6-11.2,24.7-25.1,24.7h-17.3V25.7z M384.5,64.9
		c8.3,0,13.9-6.6,13.9-14.5s-5.6-14.5-13.9-14.5h-6.2v29.1H384.5z"/>
	<path class="st0" d="M431.3,25.7h11.1v49.4h-11.1V25.7z"/>
</g>
<g>
	<path class="st1" d="M50.9,83.6c14.5,0,22.6,0,27.9-5.3c5.3-5.3,5.3-13.4,5.3-27.9s0-22.6-5.3-27.9c-5.3-5.3-13.4-5.3-27.9-5.3
		s-22.6,0-27.9,5.3c-5.3,5.3-5.3,13.4-5.3,27.9s0,22.6,5.3,27.9C28.3,83.6,36.4,83.6,50.9,83.6z"/>
	<g>
		<linearGradient id="SVGID_1_" gradientUnits="userSpaceOnUse" x1="38.4342" y1="28.9417" x2="70.1379" y2="83.8542">
			<stop  offset="0" style="stop-color:#000000;stop-opacity:0.2"/>
			<stop  offset="0.7908" style="stop-color:#000000;stop-opacity:5.000000e-02"/>
		</linearGradient>
		<path class="st2" d="M72.5,38.2c-3.2-5.6-8.5-9.9-15.2-11.7C44,22.9,30.4,30.8,26.8,44c-1.8,6.7-0.7,13.5,2.6,19
			c0,0.1,0.1,0.2,0.1,0.2l11.7,20.3c1.9,0.1,4,0.1,6.3,0.1c0,0,0,0,0,0c0.2,0,0.4,0,0.6,0c0,0,0,0,0,0c0.4,0,0.8,0,1.3,0
			c0,0,0.1,0,0.1,0c0.4,0,0.8,0,1.3,0c6.5,0,11.7,0,15.9-0.5c5.3-0.6,9.1-1.9,12-4.8C83,74.1,83.8,67.9,84,58
			C77.1,46.2,72.5,38.2,72.5,38.2z"/>
	</g>
	<path class="st3" d="M68.4,32.9c-9.7-9.7-25.4-9.7-35.1,0c-9.7,9.7-9.7,25.5,0,35.2c9.7,9.7,25.4,9.7,35.1,0
		C78.1,58.3,78.1,42.6,68.4,32.9z M66.9,44.3c-4.1,7.1-8.2,14.3-12.3,21.4c-0.8,1.3-1.9,2.1-3.4,2.2c-1.7,0.1-3-0.6-3.9-2.1
		c-2.6-4.5-5.2-9-7.7-13.4c-1.6-2.7-3.1-5.4-4.7-8.2c-1.6-2.8,0.2-6.1,3.4-6.3c1.7-0.1,3,0.7,3.8,2.1c1.2,2,2.3,4,3.4,6
		c0.8,1.4,1.6,2.9,2.5,4.3c1.2,2.1,3,3.2,5.4,3.4c3.4,0.2,6.6-2.3,7-5.9c0-0.3,0.1-0.5,0.1-0.7c0-1.2-0.2-2.2-0.7-3.1
		c-1.3-2.5,0.1-5.4,2.8-6c2.2-0.5,4.6,1.2,4.9,3.4C67.6,42.5,67.4,43.5,66.9,44.3z"/>
</g>
</svg>
