<?xml version="1.0"?>
<svg xmlns="http://www.w3.org/2000/svg" viewBox="0 0 50 50">
    <path d="M 12 2 C 9.243 2 7 4.243 7 7 L 7 41 C 7 41.553 7.448 42 8 42 L 42 42 C 42.553 42 43 41.553 43 41 L 43 7 C 43 4.243 40.757 2 38 2 L 12 2 z M 13 7 L 37 7 C 37.552 7 38 7.448 38 8 L 38 28 C 38 28.552 37.552 29 37 29 L 13 29 C 12.448 29 12 28.552 12 28 L 12 8 C 12 7.448 12.448 7 13 7 z M 19 12 L 19 15 L 21 15 L 21 12 L 19 12 z M 24 12 L 24 18 L 22 18 L 22 20 L 25 20 A 1.0001 1.0001 0 0 0 26 19 L 26 12 L 24 12 z M 29 12 L 29 15 L 31 15 L 31 12 L 29 12 z M 20 22 C 20 23.64497 21.35503 25 23 25 L 27 25 C 28.64497 25 30 23.64497 30 22 L 28 22 C 28 22.56503 27.56503 23 27 23 L 23 23 C 22.43497 23 22 22.56503 22 22 L 20 22 z M 28 34 L 37 34 L 37 36 L 28 36 L 28 34 z M 12 35 L 15 35 L 15 37 L 12 37 L 12 35 z M 9 44 L 9 47 C 9 47.553 9.448 48 10 48 L 40 48 C 40.553 48 41 47.553 41 47 L 41 44 L 9 44 z"/>
</svg>
