<?xml version="1.0"?>
<svg xmlns="http://www.w3.org/2000/svg" viewBox="0 0 80 80">
    <path d="M 9 14 C 6.8026661 14 5 15.802666 5 18 L 5 56 C 5 56.730688 5.2136476 57.40837 5.5605469 58 L 1 58 L 1 61 C 1 63.749516 3.2504839 66 6 66 L 74 66 C 76.749516 66 79 63.749516 79 61 L 79 58 L 74.439453 58 C 74.786352 57.40837 75 56.730688 75 56 L 75 18 C 75 15.802666 73.197334 14 71 14 L 9 14 z M 9 16 L 71 16 C 72.116666 16 73 16.883334 73 18 L 73 56 C 73 57.116666 72.116666 58 71 58 L 47 58 L 47 60 L 46 59 C 46 59.56503 45.56503 60 45 60 L 35 60 C 34.43497 60 34 59.56503 34 59 L 33 60 L 33 58 L 9 58 C 7.8833339 58 7 57.116666 7 56 L 7 18 C 7 16.883334 7.8833339 16 9 16 z M 12 20 A 1 1 0 0 0 11 21 A 1 1 0 0 0 12 22 A 1 1 0 0 0 13 21 A 1 1 0 0 0 12 20 z M 16 20 A 1 1 0 0 0 15 21 A 1 1 0 0 0 16 22 A 1 1 0 0 0 17 21 A 1 1 0 0 0 16 20 z M 20 20 A 1 1 0 0 0 19 21 A 1 1 0 0 0 20 22 A 1 1 0 0 0 21 21 A 1 1 0 0 0 20 20 z M 24 20 A 1 1 0 0 0 23 21 A 1 1 0 0 0 24 22 A 1 1 0 0 0 25 21 A 1 1 0 0 0 24 20 z M 28 20 A 1 1 0 0 0 27 21 A 1 1 0 0 0 28 22 A 1 1 0 0 0 29 21 A 1 1 0 0 0 28 20 z M 32 20 A 1 1 0 0 0 31 21 A 1 1 0 0 0 32 22 A 1 1 0 0 0 33 21 A 1 1 0 0 0 32 20 z M 36 20 A 1 1 0 0 0 35 21 A 1 1 0 0 0 36 22 A 1 1 0 0 0 37 21 A 1 1 0 0 0 36 20 z M 40 20 A 1 1 0 0 0 39 21 A 1 1 0 0 0 40 22 A 1 1 0 0 0 41 21 A 1 1 0 0 0 40 20 z M 44 20 A 1 1 0 0 0 43 21 A 1 1 0 0 0 44 22 A 1 1 0 0 0 45 21 A 1 1 0 0 0 44 20 z M 48 20 A 1 1 0 0 0 47 21 A 1 1 0 0 0 48 22 A 1 1 0 0 0 49 21 A 1 1 0 0 0 48 20 z M 52 20 A 1 1 0 0 0 51 21 A 1 1 0 0 0 52 22 A 1 1 0 0 0 53 21 A 1 1 0 0 0 52 20 z M 56 20 A 1 1 0 0 0 55 21 A 1 1 0 0 0 56 22 A 1 1 0 0 0 57 21 A 1 1 0 0 0 56 20 z M 60 20 A 1 1 0 0 0 59 21 A 1 1 0 0 0 60 22 A 1 1 0 0 0 61 21 A 1 1 0 0 0 60 20 z M 64 20 A 1 1 0 0 0 63 21 A 1 1 0 0 0 64 22 A 1 1 0 0 0 65 21 A 1 1 0 0 0 64 20 z M 68 20 A 1 1 0 0 0 67 21 A 1 1 0 0 0 68 22 A 1 1 0 0 0 69 21 A 1 1 0 0 0 68 20 z M 12 24 A 1 1 0 0 0 11 25 A 1 1 0 0 0 12 26 A 1 1 0 0 0 13 25 A 1 1 0 0 0 12 24 z M 68 24 A 1 1 0 0 0 67 25 A 1 1 0 0 0 68 26 A 1 1 0 0 0 69 25 A 1 1 0 0 0 68 24 z M 12 28 A 1 1 0 0 0 11 29 A 1 1 0 0 0 12 30 A 1 1 0 0 0 13 29 A 1 1 0 0 0 12 28 z M 68 28 A 1 1 0 0 0 67 29 A 1 1 0 0 0 68 30 A 1 1 0 0 0 69 29 A 1 1 0 0 0 68 28 z M 12 32 A 1 1 0 0 0 11 33 A 1 1 0 0 0 12 34 A 1 1 0 0 0 13 33 A 1 1 0 0 0 12 32 z M 68 32 A 1 1 0 0 0 67 33 A 1 1 0 0 0 68 34 A 1 1 0 0 0 69 33 A 1 1 0 0 0 68 32 z M 12 36 A 1 1 0 0 0 11 37 A 1 1 0 0 0 12 38 A 1 1 0 0 0 13 37 A 1 1 0 0 0 12 36 z M 68 36 A 1 1 0 0 0 67 37 A 1 1 0 0 0 68 38 A 1 1 0 0 0 69 37 A 1 1 0 0 0 68 36 z M 12 40 A 1 1 0 0 0 11 41 A 1 1 0 0 0 12 42 A 1 1 0 0 0 13 41 A 1 1 0 0 0 12 40 z M 68 40 A 1 1 0 0 0 67 41 A 1 1 0 0 0 68 42 A 1 1 0 0 0 69 41 A 1 1 0 0 0 68 40 z M 12 44 A 1 1 0 0 0 11 45 A 1 1 0 0 0 12 46 A 1 1 0 0 0 13 45 A 1 1 0 0 0 12 44 z M 68 44 A 1 1 0 0 0 67 45 A 1 1 0 0 0 68 46 A 1 1 0 0 0 69 45 A 1 1 0 0 0 68 44 z M 12 48 A 1 1 0 0 0 11 49 A 1 1 0 0 0 12 50 A 1 1 0 0 0 13 49 A 1 1 0 0 0 12 48 z M 68 48 A 1 1 0 0 0 67 49 A 1 1 0 0 0 68 50 A 1 1 0 0 0 69 49 A 1 1 0 0 0 68 48 z M 12 52 A 1 1 0 0 0 11 53 A 1 1 0 0 0 12 54 A 1 1 0 0 0 13 53 A 1 1 0 0 0 12 52 z M 68 52 A 1 1 0 0 0 67 53 A 1 1 0 0 0 68 54 A 1 1 0 0 0 69 53 A 1 1 0 0 0 68 52 z M 3 60 L 32.416016 60 C 32.85942 61.106694 33.743378 62 35 62 L 45 62 C 46.256622 62 47.14058 61.106694 47.583984 60 L 77 60 L 77 61 C 77 62.668484 75.668484 64 74 64 L 6 64 C 4.3315161 64 3 62.668484 3 61 L 3 60 z"/>
</svg>
