<?xml version="1.0"?>
<svg xmlns="http://www.w3.org/2000/svg" viewBox="0 0 50 50">
    <path style="text-indent:0;text-align:start;line-height:normal;text-transform:none;block-progression:tb;-inkscape-font-specification:Sans" d="M 25 1 C 11.757011 1 1 11.757011 1 25 C 1 38.242989 11.757011 49 25 49 C 38.242989 49 49 38.242989 49 25 C 49 11.757011 38.242989 1 25 1 z M 25 3 C 37.162109 3 47 12.837891 47 25 C 47 37.162109 37.162109 47 25 47 C 12.837891 47 3 37.162109 3 25 C 3 12.837891 12.837891 3 25 3 z M 37.6875 11 C 32.9875 11 27.2125 13.69375 22.3125 18.59375 C 21.5125 19.39375 20.8 20.1 20 21 C 15.9 21 12.9 22.1 10 25 L 8 27 L 17 27 L 16 30 L 20 34 L 23 33 L 23 42 L 25 40 C 27.9 37.1 29 34.1 29 30 C 29.9 29.3 30.60625 28.5875 31.40625 27.6875 C 36.70625 22.3875 39.40625 15.9 38.90625 11 L 37.6875 11 z M 37 13 C 36.7 17.2 34.2 22.2125 30 26.3125 C 29.1 27.2125 28.4875 27.80625 27.6875 28.40625 L 27 29 L 27 30 C 27 32.9 26.4 35.00625 25 36.90625 L 25 33 L 25 30.1875 L 22.40625 31.09375 L 20.59375 31.6875 L 18.3125 29.40625 L 18.90625 27.59375 L 19.8125 25 L 17 25 L 13.09375 25 C 14.99375 23.6 17.2 23 20 23 L 21 23 L 21.59375 22.1875 C 22.19375 21.3875 22.7875 20.80625 23.6875 19.90625 C 27.6875 15.90625 32.8 13.3 37 13 z M 30 18 C 28.895431 18 28 18.895431 28 20 C 28 21.104569 28.895431 22 30 22 C 31.104569 22 32 21.104569 32 20 C 32 18.895431 31.104569 18 30 18 z M 15 32 C 14.4 32.3 13.6875 32.8125 13.1875 33.3125 C 11.5875 34.9125 10.9 37 11 39 C 13 39.2 15.0875 38.50625 16.6875 36.90625 C 17.1875 36.40625 17.7 35.69375 18 35.09375 L 17.5 34.59375 C 16.1 35.99375 14.9 36.1 14 36 C 13.9 35.1 14.1 33.9 15.5 32.5 L 15 32 z" overflow="visible" font-family="Sans"/>
</svg>
