<?xml version="1.0"?>
<svg xmlns="http://www.w3.org/2000/svg" version="1" viewBox="0 0 24 24" enable-background="new 0 0 24 24">
    <path d="M 4 4 C 2.9 4 2 4.9 2 6 L 2 18 C 2 19.1 2.9 20 4 20 L 20 20 C 21.1 20 22 19.1 22 18 L 22 6 C 22 4.9 21.1 4 20 4 L 4 4 z M 4 6 L 20 6 L 20 18 L 4 18 L 4 6 z M 9.5625 8.4375 L 8.4375 9.5625 L 10.875 12 L 8.4375 14.4375 L 9.5625 15.5625 L 12 13.125 L 14.4375 15.5625 L 15.5625 14.4375 L 13.125 12 L 15.5625 9.5625 L 14.4375 8.4375 L 12 10.875 L 9.5625 8.4375 z"/>
</svg>
