<?xml version="1.0"?>
<svg xmlns="http://www.w3.org/2000/svg" width="50" height="50" viewBox="0 0 50 50">
    <path style="text-indent:0;text-align:start;line-height:normal;text-transform:none;block-progression:tb;-inkscape-font-specification:Bitstream Vera Sans" d="M 25 0 C 18.33 0 10.324 6.87 9.125 13.625 C 8.6388067 16.472957 8.3659153 18.364393 8.3125 19.46875 C 8.0669151 19.522375 7.8053225 19.624638 7.53125 19.78125 C 6.9408134 20.118642 6.40625 20.906944 6.40625 21.8125 C 6.40625 23.234722 6.8536443 24.246866 6.90625 24.5625 C 6.936996 24.746976 7.0166551 25.431146 7.09375 26.125 C 7.167246 26.786463 7.2324868 27.476592 7.40625 28.09375 C 7.41476 28.12397 7.42857 28.15773 7.4375 28.1875 C 7.6038466 29.067073 7.6220186 29.807283 8.125 30.6875 C 8.325 31.0375 8.5561745 31.501018 9 31.90625 C 9.2920763 32.172928 9.6975018 32.385231 10.15625 32.5 C 10.181953 32.736434 10.19473 32.988779 10.21875 33.25 C 10.35775 34.763 10.5645 36.84675 11.3125 38.34375 C 11.3945 38.50675 11.47575 38.71575 11.59375 38.96875 C 13.00575 42.01075 16.767 50.09375 25 50.09375 C 33.233 50.09375 36.99425 42.01075 38.40625 38.96875 C 38.52325 38.71575 38.6055 38.50675 38.6875 38.34375 C 39.5015 36.71475 39.6885 34.5225 39.8125 33.0625 C 39.833598 32.819351 39.854251 32.669115 39.875 32.46875 C 40.296059 32.350418 40.660033 32.159458 40.9375 31.90625 C 41.381447 31.501117 41.612576 31.037366 41.8125 30.6875 C 42.315481 29.807283 42.333653 29.067073 42.5 28.1875 C 42.509 28.15771 42.52271 28.12399 42.53125 28.09375 C 42.705756 27.475931 42.801611 26.7866 42.875 26.125 C 42.95198 25.431014 43.000593 24.746443 43.03125 24.5625 C 43.08484 24.244148 43.5625 23.234167 43.5625 21.8125 C 43.5625 20.906944 43.027764 20.118664 42.4375 19.78125 C 42.180367 19.634265 41.926552 19.547678 41.6875 19.5 C 41.637604 18.350006 41.361108 16.405971 40.875 13.625 C 39.677 6.876 31.67 0 25 0 z M 17.375 7.625 C 18.814117 7.4492187 20.59375 10 25 10 C 29.7 10 31.40625 7.1125 32.90625 7.8125 C 35.50625 8.9125 36.8125 11.8 36.8125 14.5 C 36.8125 14.567 36.82575 14.68125 36.84375 14.78125 C 36.81875 14.77425 36.7985 14.7675 36.8125 14.8125 C 38.024069 18.811463 38.049968 21.650389 38 23.09375 L 36.6875 25.40625 L 35.875 25.40625 C 35.601301 24.156787 34.824126 23.105513 33.78125 22.4375 C 34.056345 22.333739 34.300232 22.219723 34.59375 22.09375 C 35.19475 21.69375 35.6875 21.09375 35.6875 21.09375 C 35.6875 21.09375 34.0125 20.8125 33.3125 20.8125 C 31.7115 20.8125 29.6125 21.0125 28.3125 21.8125 C 28.3125 21.8125 28.235788 22.371513 28.3125 22.8125 C 27.586399 23.434114 27.034265 24.268643 26.78125 25.21875 C 26.252239 25.029118 25.65111 24.90625 25 24.90625 C 24.337812 24.90625 23.755071 25.022749 23.21875 25.21875 C 22.964395 24.263611 22.426681 23.43173 21.6875 22.8125 C 21.764212 22.371513 21.6875 21.8125 21.6875 21.8125 C 20.3875 21.0125 18.2875 20.8125 16.6875 20.8125 C 15.9875 20.8125 14.3125 21.09375 14.3125 21.09375 C 14.3125 21.09375 14.80625 21.69375 15.40625 22.09375 C 15.700188 22.219723 15.943513 22.333739 16.21875 22.4375 C 15.175874 23.105513 14.398699 24.156787 14.125 25.40625 L 13.3125 25.40625 L 11.96875 23.03125 C 11.968501 23.023017 11.968993 23.008317 11.96875 23 C 11.928854 21.635932 11.962564 19.142564 12.875 15.75 C 12.986 15.397 13.07 15.08975 13.125 14.84375 C 13.127 14.83575 13.15325 14.8205 13.15625 14.8125 C 13.19325 14.6445 13.1875 14.51225 13.1875 14.40625 C 13.1875 11.70625 14.59375 8.7875 17.09375 7.6875 C 17.187438 7.65 17.279059 7.6367188 17.375 7.625 z M 9.09375 21.40625 A 1.0001 1.0001 0 0 0 9.1875 21.40625 C 9.1875 21.40625 9.4409027 21.381739 9.75 21.65625 C 9.7616719 22.497656 10 23.28825 10 24 C 10 25.004 10.6125 28.34 11.0625 30.5 C 10.9435 30.491 10.83975 30.49625 10.71875 30.53125 C 10.695164 30.538339 10.678909 30.553866 10.65625 30.5625 C 10.54024 30.541638 10.458328 30.513583 10.375 30.4375 C 10.243825 30.317732 10.075 30.06875 9.875 29.71875 C 9.5971265 29.232471 9.5900859 28.794179 9.375 27.71875 A 1.0001 1.0001 0 0 0 9.34375 27.625 C 9.2350508 27.262669 9.1354051 26.531146 9.0625 25.875 C 8.9895949 25.218854 8.9442539 24.665524 8.875 24.25 C 8.7276057 23.365634 8.40625 22.790278 8.40625 21.8125 C 8.40625 21.518056 8.421687 21.593858 8.53125 21.53125 C 8.6408134 21.46864 8.9048611 21.40625 9.09375 21.40625 z M 40.78125 21.40625 A 1.0001 1.0001 0 0 0 40.84375 21.40625 C 41.031953 21.40625 41.328014 21.46866 41.4375 21.53125 C 41.546986 21.59384 41.5625 21.51806 41.5625 21.8125 C 41.5625 22.790833 41.210911 23.368352 41.0625 24.25 C 40.99316 24.666057 40.947769 25.250236 40.875 25.90625 C 40.80223 26.562264 40.70259 27.263404 40.59375 27.625 A 1.0001 1.0001 0 0 0 40.5625 27.71875 C 40.347414 28.794179 40.371623 29.232471 40.09375 29.71875 C 39.893674 30.068884 39.724553 30.318133 39.59375 30.4375 C 39.462947 30.556867 39.401374 30.59375 39.0625 30.59375 L 38.875 30.59375 C 39.326229 28.438174 39.96875 25.022391 39.96875 24 C 39.96875 23.28825 40.175828 22.497656 40.1875 21.65625 C 40.503621 21.365206 40.78125 21.40625 40.78125 21.40625 z M 18.34375 22.71875 C 19.218369 22.784648 19.844917 22.953942 20.34375 23.09375 C 21.553771 23.70821 22.40625 24.959689 22.40625 26.40625 C 22.40625 28.455625 20.736876 30.09375 18.6875 30.09375 C 16.638124 30.09375 15 28.455625 15 26.40625 C 15 24.47436 16.46011 22.895185 18.34375 22.71875 z M 31.625 22.71875 C 33.523667 22.880477 35 24.46376 35 26.40625 C 35 28.455625 33.361876 30.09375 31.3125 30.09375 C 29.263124 30.09375 27.59375 28.455625 27.59375 26.40625 C 27.59375 24.959689 28.446229 23.70821 29.65625 23.09375 C 30.149768 22.955493 30.7646 22.786211 31.625 22.71875 z M 18.09375 23.5 C 17.49375 23.7 17.1125 24.2125 17.3125 24.8125 C 17.3125 25.6125 18.00625 26.3125 18.90625 26.3125 C 19.80625 26.3125 20.5 25.6125 20.5 24.8125 C 20.5 24.2125 20.1 23.7 19.5 23.5 C 19.6 23.6 19.6875 23.8 19.6875 24 C 19.6875 24.5 19.3125 24.8125 18.8125 24.8125 C 18.3125 24.8125 17.90625 24.4 17.90625 24 C 17.90625 23.8 17.89375 23.6 18.09375 23.5 z M 30.5 23.5 C 29.9 23.7 29.5 24.2125 29.5 24.8125 C 29.5 25.6125 30.19375 26.3125 31.09375 26.3125 C 31.99375 26.3125 32.6875 25.6125 32.6875 24.8125 C 32.8855 24.2125 32.50625 23.7 31.90625 23.5 C 32.10625 23.6 32.09375 23.8 32.09375 24 C 32.09375 24.4 31.6875 24.8125 31.1875 24.8125 C 30.6875 24.8125 30.3125 24.5 30.3125 24 C 30.3125 23.8 30.401 23.6 30.5 23.5 z M 12.1875 25.46875 L 12.5625 26.15625 A 0.50005 0.50005 0 0 0 13 26.40625 L 14 26.40625 C 14 28.996065 16.097684 31.09375 18.6875 31.09375 C 21.277316 31.09375 23.40625 28.996065 23.40625 26.40625 C 23.40625 26.341077 23.37767 26.283312 23.375 26.21875 C 23.851533 26.018967 24.394852 25.90625 25 25.90625 C 25.604797 25.90625 26.148103 26.019167 26.625 26.21875 C 26.62233 26.283312 26.59375 26.341077 26.59375 26.40625 C 26.59375 28.996065 28.722684 31.09375 31.3125 31.09375 C 33.902316 31.09375 36 28.996065 36 26.40625 L 37 26.40625 A 0.50005 0.50005 0 0 0 37.4375 26.15625 L 37.75 25.625 C 37.430628 27.749508 36.756009 31.397789 36 33.6875 C 35.965 33.7955 35.9525 33.91725 35.9375 34.03125 C 35.3995 34.53625 34.709 34.9095 34.5 35.1875 C 34.1 35.8875 33.6 40.3125 32.5 40.3125 C 32 40.3125 31.79375 37.4875 31.59375 37.1875 C 31.19475 36.6875 29.8 35.90625 27.5 35.90625 C 26.2 35.90625 26.79375 37.3125 25.09375 37.3125 C 23.49375 37.3125 23.9875 35.90625 22.6875 35.90625 C 20.2875 35.90625 18.99375 36.6875 18.59375 37.1875 C 18.39375 37.4875 18.0875 40.3125 17.6875 40.3125 C 16.4875 40.3125 16.0875 35.8885 15.6875 35.1875 C 15.4335 34.8485 14.4715 34.3745 13.9375 33.6875 C 13.166661 31.349905 12.497512 27.565927 12.1875 25.46875 z M 21.84375 39 C 22.3145 38.993625 22.8065 39.0535 23.3125 39.125 C 23.8755 39.205 24.46375 39.3125 25.09375 39.3125 C 25.72475 39.3125 26.2795 39.205 26.8125 39.125 C 27.7595 38.981 28.64225 38.8675 29.53125 39.3125 C 30.02725 39.5595 30.247 40.16225 30 40.65625 C 29.752 41.15025 29.14925 41.33975 28.65625 41.09375 C 28.34525 40.93975 27.897 41.008 27.125 41.125 C 26.547 41.212 25.87475 41.3125 25.09375 41.3125 C 24.32175 41.3125 23.63325 41.211 23.03125 41.125 C 22.36225 41.029 21.756 40.9215 21.5 41.0625 C 21.016 41.3335 20.392 41.1715 20.125 40.6875 C 19.856 40.2055 20.018 39.5805 20.5 39.3125 C 20.922 39.0775 21.373 39.006375 21.84375 39 z"/>
</svg>
