<?xml version="1.0"?>
<svg xmlns="http://www.w3.org/2000/svg" viewBox="0 0 50 50">
    <path d="M 25 2 C 12.309296 2 2 12.309296 2 25 C 2 37.690704 12.309296 48 25 48 C 37.690704 48 48 37.690704 48 25 C 48 12.309296 37.690704 2 25 2 z M 25 4 C 36.609824 4 46 13.390176 46 25 C 46 36.609824 36.609824 46 25 46 C 13.390176 46 4 36.609824 4 25 C 4 13.390176 13.390176 4 25 4 z M 24.9375 10.78125 C 24.791875 10.799734 24.635 10.859 24.5 10.9375 L 23.59375 11.46875 C 23.05475 11.78275 22.8735 12.49125 23.1875 13.03125 L 31.03125 26.53125 L 33.90625 24.84375 L 26.0625 11.34375 C 25.827 10.9395 25.374375 10.725797 24.9375 10.78125 z M 22.53125 15.28125 C 22.093766 15.224578 21.6425 15.4075 21.40625 15.8125 L 20.40625 17.53125 L 23.375 19.25 L 24.375 17.5625 C 24.69 17.0225 24.50775 16.316 23.96875 16 L 22.96875 15.40625 C 22.83375 15.3275 22.677078 15.300141 22.53125 15.28125 z M 20.15625 17.9375 L 13.25 29.8125 L 16.1875 31.53125 L 23.125 19.6875 L 20.15625 17.9375 z M 10.3125 23.3125 L 10.3125 26.625 L 14.53125 26.625 L 16.46875 23.3125 L 10.3125 23.3125 z M 21.4375 23.3125 L 19.59375 26.625 L 30.34375 26.625 L 28.5 23.3125 L 21.4375 23.3125 z M 33.71875 23.3125 L 35.5 26.625 L 39.625 26.625 L 39.625 23.3125 L 33.71875 23.3125 z M 34.21875 25.40625 L 31.34375 27.0625 L 33 29.9375 L 35.875 28.25 L 34.21875 25.40625 z M 35.75 29.03125 C 35.653619 29.047117 35.53625 29.100375 35.4375 29.15625 C 34.9705 29.42125 34.284 29.8175 33.875 30.0625 C 33.106 30.5225 33.7 31.86425 33.875 32.15625 C 34.87 33.82325 35.88125 33.60025 36.65625 34.78125 C 37.08025 35.42725 36.95975 35.69325 37.09375 35.90625 C 37.14375 35.98625 37.34025 36.091 37.40625 36 C 38.60025 34.349 38.24 31.48275 37.375 30.21875 C 37.022375 29.701625 36.424666 28.92018 35.75 29.03125 z M 12.875 30.4375 L 11.4375 35.84375 C 11.4115 35.94175 11.44525 36.04275 11.53125 36.09375 C 11.61825 36.14475 11.7405 36.1325 11.8125 36.0625 L 15.8125 32.1875 L 12.875 30.4375 z"/>
</svg>
