<?xml version="1.0"?>
<svg xmlns="http://www.w3.org/2000/svg" viewBox="0 0 16 16">
    <path style="line-height:normal;text-indent:0;text-align:start;text-decoration-line:none;text-decoration-style:solid;text-decoration-color:#000;text-transform:none;block-progression:tb;isolation:auto;mix-blend-mode:normal" d="M 3.5 2 C 2.6774686 2 2 2.6774686 2 3.5 L 2 10.365234 L 1.1660156 11.816406 L 1.1582031 11.830078 C 0.66808392 12.808842 1.40617 14 2.5 14 L 13.5 14 C 14.59383 14 15.331914 12.80884 14.841797 11.830078 L 14.833984 11.816406 L 14 10.365234 L 14 3.5 C 14 2.6774686 13.322531 2 12.5 2 L 3.5 2 z M 3.5 3 L 12.5 3 C 12.781469 3 13 3.2185314 13 3.5 L 13 10 L 3 10 L 3 3.5 C 3 3.2185314 3.2185314 3 3.5 3 z M 2.7890625 11 L 13.210938 11 L 13.947266 12.279297 C 14.121179 12.629917 13.891392 13 13.5 13 L 2.5 13 C 2.1086076 13 1.878808 12.629919 2.0527344 12.279297 C 2.0527344 12.279297 2.0527344 12.277344 2.0527344 12.277344 L 2.7890625 11 z" font-weight="400" font-family="sans-serif" white-space="normal" overflow="visible"/>
</svg>
